<svg width="85" height="87" viewBox="0 0 85 87" fill="none" xmlns="http://www.w3.org/2000/svg">
<g clip-path="url(#clip0_777_5035)">
<path d="M6.27856 26.5069C6.27856 29.7985 8.94729 32.4668 12.2385 32.4668C15.5305 32.4668 18.1988 29.7985 18.1988 26.5069C18.1988 23.2153 15.5305 20.5466 12.2385 20.5466C8.94729 20.5466 6.27856 23.2153 6.27856 26.5069Z" fill="url(#paint0_linear_777_5035)"/>
<path d="M18.3159 38.2993C18.3159 54.544 31.4848 67.7129 47.7295 67.7129C63.9737 67.7129 77.143 54.544 77.143 38.2993C77.143 22.0546 63.9737 8.88578 47.7295 8.88578C31.4848 8.88578 18.3159 22.0546 18.3159 38.2993Z" fill="url(#paint1_linear_777_5035)"/>
<path d="M17.7122 66.5328C17.7122 73.3301 23.2223 78.8398 30.0192 78.8398C36.8161 78.8398 42.3262 73.3301 42.3262 66.5328C42.3262 59.7359 36.8161 54.2254 30.0192 54.2254C23.2223 54.2254 17.7122 59.7359 17.7122 66.5328Z" fill="url(#paint2_linear_777_5035)"/>
<mask id="mask0_777_5035" style="mask-type:luminance" maskUnits="userSpaceOnUse" x="0" y="0" width="85" height="87">
<path d="M0 -0.000183105H85V86.0898H0V-0.000183105Z" fill="white"/>
</mask>
<g mask="url(#mask0_777_5035)">
<path d="M36.9761 28.6209H38.2293V31.3066H36.9761C36.6178 30.3516 35.9614 29.8741 35.0661 29.8741C34.2904 29.8741 33.7532 30.113 33.395 30.6502C33.0368 31.1277 32.7982 31.7841 32.7982 32.5006C32.7982 33.2762 32.9771 33.8134 33.395 34.2909C33.8129 34.7684 34.35 35.0069 34.9468 35.0069C35.4839 35.0069 35.9018 34.828 36.26 34.4698C36.6178 34.112 36.9164 33.6345 37.0357 33.0377L38.5279 33.7537C37.9311 35.5441 36.6775 36.4395 34.7679 36.4395C33.395 36.4395 32.3804 36.0812 31.6643 35.3652C30.9478 34.6491 30.6497 33.6941 30.6497 32.5602C30.6497 31.7245 30.8286 31.068 31.1868 30.4713C31.5446 29.8745 32.0221 29.4566 32.6189 29.0984C33.2161 28.7998 33.8725 28.6209 34.6482 28.6209C35.5436 28.6209 36.3197 28.8598 36.9164 29.3373V28.6209H36.9761Z" fill="white"/>
<path d="M43.6608 29.9348C43.064 29.9348 42.5865 30.1737 42.1686 30.5912C41.7507 31.009 41.5718 31.6654 41.5718 32.5608C41.5718 33.3369 41.7507 33.9337 42.1686 34.3516C42.5865 34.769 43.064 35.008 43.6608 35.008C44.2575 35.008 44.735 34.769 45.1529 34.3516C45.5708 33.9337 45.7497 33.2773 45.7497 32.4415C45.7497 31.6654 45.5708 31.1283 45.1529 30.6508C44.7947 30.1137 44.2575 29.9348 43.6608 29.9348ZM43.6608 28.5022C44.974 28.5022 45.9882 28.8605 46.7643 29.6362C47.5404 30.4123 47.8983 31.3076 47.8983 32.4415C47.8983 33.5158 47.5404 34.4708 46.7643 35.2465C45.9882 36.0226 44.974 36.3809 43.6608 36.3809C42.2879 36.3809 41.2732 36.0226 40.5572 35.2465C39.8411 34.4708 39.4829 33.5755 39.4829 32.5012C39.4829 31.4269 39.8411 30.4719 40.6168 29.6962C41.2732 28.9201 42.3475 28.5022 43.6608 28.5022Z" fill="white"/>
<path d="M51.8375 35.0085H52.315C52.9117 35.0085 53.3296 34.9489 53.6874 34.77C54.0457 34.6503 54.2846 34.3521 54.5232 33.9939C54.7021 33.6356 54.8218 33.0985 54.8218 32.5017C54.8218 31.905 54.7021 31.4274 54.5232 31.0096C54.3443 30.5917 54.0457 30.2935 53.6874 30.1743C53.3296 30.0546 52.8521 29.9353 52.3746 29.9353H51.8971C51.8375 29.9353 51.8375 35.0085 51.8375 35.0085ZM48.7339 36.2617V35.0085H49.8678V29.9353H48.7339V28.6821H52.3746C53.1503 28.6821 53.7475 28.7417 54.225 28.8014C54.7021 28.861 55.1199 29.1 55.5378 29.3982C55.9557 29.6968 56.3139 30.1743 56.5525 30.6518C56.7914 31.1889 56.9107 31.7857 56.9107 32.4421C56.9107 32.9792 56.8511 33.4567 56.6717 33.9342C56.4928 34.4117 56.2543 34.8296 56.0153 35.0682C55.7768 35.3668 55.4185 35.6053 55.0603 35.7846C54.7025 35.9635 54.3443 36.0828 54.0457 36.1424C53.7475 36.2021 53.27 36.2021 52.6131 36.2021C52.5535 36.2617 48.7339 36.2617 48.7339 36.2617Z" fill="white"/>
<path d="M57.8059 36.2607V35.0075H58.7609V29.9343H57.8059V28.6806H64.5502V31.0682H63.1177V29.9343H60.7902V31.7246H62.7002V32.9782H60.7902V35.0075H63.1177V33.8732H64.5502V36.3203L57.8059 36.2607Z" fill="white"/>
<path d="M40.7957 41.4531H43.959L45.5704 39.0656H46.585V37.6931H43.0039V39.0656H43.8397L42.6461 41.0353L41.4522 39.0656H42.2283V37.6931H38.1697V39.0656H39.1247L40.7957 41.4531Z" fill="white"/>
<path d="M32.6192 39.0656H34.8871L33.216 41.4531H35.7228L37.5732 38.8867V37.6927H31.2463V40.4981H32.6192V39.0656Z" fill="white"/>
<path d="M47.9581 41.4531H49.3906V39.8417L50.3456 41.4531H52.4942L50.286 37.6931H46.8838V39.0656H47.9581V41.4531Z" fill="white"/>
<path d="M53.2698 41.4531H54.762V39.0656H55.8959V37.6931H52.1956V39.0656H53.2698V41.4531Z" fill="white"/>
<path d="M58.9399 41.4531C58.9399 40.6774 59.1784 40.1399 59.6559 39.6624C60.1334 39.1853 60.6706 38.9463 61.3274 38.9463C61.8045 38.9463 62.282 39.0656 62.6999 39.3642C63.1177 39.6624 63.4163 40.0206 63.5953 40.4981H64.9681V37.5739H63.5953V38.2303C62.9985 37.6931 62.1627 37.4542 61.0288 37.4542C60.2531 37.4542 59.5367 37.6335 58.8803 37.9317C58.2238 38.2303 57.6863 38.7674 57.3285 39.3642C56.9702 39.961 56.7913 40.5578 56.7317 41.3339H58.9399V41.4531Z" fill="white"/>
<path d="M43.4817 42.2295L43.601 42.0506H41.2139L41.3331 42.2295V44.4377H40.1992V45.8105H44.6156V44.4377H43.4817V42.2295Z" fill="white"/>
<path d="M53.2698 42.0515V42.7675L52.8519 42.0515H50.7034L52.9116 45.8711H54.762V42.0515H53.2698Z" fill="white"/>
<path d="M61.8049 42.0499V43.1242H63.2374C63.1182 43.542 62.8792 43.8998 62.581 44.1388C62.2824 44.3774 61.8646 44.497 61.3871 44.497C60.7306 44.497 60.1935 44.2581 59.6564 43.7806C59.2981 43.3631 59.0596 42.8256 58.9999 42.1095H56.7317C56.7913 43.1838 57.1496 44.1388 57.8656 44.8549C58.6417 45.631 59.7756 46.0488 61.2678 46.0488C62.1035 46.0488 62.8792 45.8695 63.5356 45.5713C64.1924 45.2727 64.7296 44.7952 65.0874 44.1984C65.386 43.6613 65.5649 43.0049 65.6245 42.1692L61.8049 42.0499Z" fill="white"/>
<path d="M36.2599 44.4377H33.5742L35.3049 42.0501H32.7384L31.0674 44.4377V45.8105H37.6328V42.8859H36.2599V44.4377Z" fill="white"/>
<path d="M49.3903 42.0506H47.9578V44.4381H46.8835V45.8105H50.405V44.4381H49.3903V42.0506Z" fill="white"/>
<path d="M70.3397 46.2285H67.415L69.7429 42.2296L71.2351 44.796L70.3397 46.2285Z" fill="white"/>
<path d="M71.5334 44.3789L67.4749 37.4557H70.3399L72.7866 41.5739C72.7866 41.5739 72.966 41.8125 72.7866 42.29C72.4884 42.7078 71.5334 44.3789 71.5334 44.3789Z" fill="white"/>
<path d="M25.6956 28.3224L28.6203 28.382L26.352 32.2617L24.8599 29.7549L25.6956 28.3224Z" fill="white"/>
<path d="M24.5616 30.1735L28.6202 37.0371H25.7551L23.368 32.9785C23.368 32.9785 23.1887 32.74 23.368 32.2625C23.6066 31.785 24.5616 30.1735 24.5616 30.1735Z" fill="white"/>
<path d="M68.1504 64.5296H68.4291C68.7538 64.5296 69.0172 64.4211 69.0172 64.1577C69.0172 63.9262 68.847 63.7713 68.4755 63.7713C68.321 63.7713 68.2125 63.7866 68.1504 63.802V64.5296ZM68.135 65.9687H67.547V63.4305C67.7789 63.3841 68.104 63.353 68.5223 63.353C69.0018 63.353 69.2184 63.4305 69.4044 63.539C69.5431 63.6471 69.6516 63.8488 69.6516 64.0964C69.6516 64.3747 69.4354 64.5913 69.1257 64.6845V64.7151C69.3733 64.8083 69.5125 64.9934 69.5899 65.3343C69.6674 65.7215 69.7138 65.876 69.7755 65.9687H69.141C69.0635 65.876 69.0172 65.6441 68.9397 65.3496C68.8933 65.0709 68.7384 64.9471 68.4138 64.9471H68.135V65.9687ZM66.5717 64.6377C66.5717 65.7679 67.4078 66.6657 68.5529 66.6657C69.6674 66.6657 70.4874 65.7679 70.4874 64.6534C70.4874 63.5232 69.6674 62.6101 68.5376 62.6101C67.4078 62.6101 66.5717 63.5232 66.5717 64.6377ZM71.138 64.6377C71.138 66.0773 70.0078 67.207 68.5376 67.207C67.0823 67.207 65.9219 66.0773 65.9219 64.6377C65.9219 63.2296 67.0823 62.0994 68.5376 62.0994C70.0078 62.0994 71.138 63.2296 71.138 64.6377Z" fill="#0800E3"/>
</g>
</g>
<defs>
<linearGradient id="paint0_linear_777_5035" x1="15.2193" y1="31.6692" x2="9.27009" y2="21.365" gradientUnits="userSpaceOnUse">
<stop stop-color="#0800E3"/>
<stop offset="1" stop-color="#AE00BF"/>
</linearGradient>
<linearGradient id="paint1_linear_777_5035" x1="62.4386" y1="63.7765" x2="33.0202" y2="12.8223" gradientUnits="userSpaceOnUse">
<stop stop-color="#0800E3"/>
<stop offset="1" stop-color="#AE00BF"/>
</linearGradient>
<linearGradient id="paint2_linear_777_5035" x1="36.1738" y1="77.193" x2="23.8993" y2="55.9329" gradientUnits="userSpaceOnUse">
<stop stop-color="#0800E3"/>
<stop offset="1" stop-color="#AE00BF"/>
</linearGradient>
<clipPath id="clip0_777_5035">
<rect width="85" height="86.09" fill="white"/>
</clipPath>
</defs>
</svg>
